<?xml version="1.0" encoding="utf-8"?>
<!-- Generator: Adobe Illustrator 21.0.0, SVG Export Plug-In . SVG Version: 6.00 Build 0)  -->
<svg version="1.1" id="Layer_1" xmlns="http://www.w3.org/2000/svg" xmlns:xlink="http://www.w3.org/1999/xlink" x="0px" y="0px"
	 viewBox="0 0 500 500" style="enable-background:new 0 0 500 500;" xml:space="preserve">
<style type="text/css">
	.st0{fill:url(#SVGID_1_);}
	.st1{fill:url(#SVGID_2_);}
	.st2{fill:none;stroke:url(#SVGID_3_);stroke-width:6;stroke-miterlimit:10;}
	.st3{display:none;}
	.st4{display:inline;}
	.st5{fill:#004C4C;}
	.st6{fill:#006D46;}
	.st7{opacity:0.1;}
</style>
<g>
	<linearGradient id="SVGID_1_" gradientUnits="userSpaceOnUse" x1="92.0001" y1="250" x2="407.9999" y2="250">
		<stop  offset="0" style="stop-color:#47FFD1"/>
		<stop  offset="1" style="stop-color:#56C4FF"/>
	</linearGradient>
	<path class="st0" d="M239.7,73.5l-137.5,79.4c-6.4,3.7-10.3,10.5-10.3,17.8v158.7c0,7.3,3.9,14.1,10.3,17.8l137.5,79.4
		c6.4,3.7,14.2,3.7,20.5,0l137.5-79.4c6.4-3.7,10.3-10.5,10.3-17.8V170.6c0-7.3-3.9-14.1-10.3-17.8L260.3,73.5
		C253.9,69.8,246.1,69.8,239.7,73.5z M385,326.8c0,0.7-0.4,1.4-1,1.7l0,0l-126.4,73c-4.7,2.7-10.5,2.7-15.3,0l-115.6-66.7
		c-7.3-4.2-11.8-12-11.8-20.4V186.5c0-8.9,4.8-17.2,12.5-21.7l112.1-64.7c6.4-3.7,14.3-3.7,20.7,0l113.8,65.7
		c6.7,3.9,10.9,11,10.9,18.8V326.8z"/>
	<linearGradient id="SVGID_2_" gradientUnits="userSpaceOnUse" x1="119" y1="250" x2="381" y2="250">
		<stop  offset="0" style="stop-color:#47FFD1"/>
		<stop  offset="1" style="stop-color:#56C4FF"/>
	</linearGradient>
	<path class="st1" d="M119,186.4v127.1c0,7.5,4,14.4,10.4,18.1l110.1,63.6c6.5,3.7,14.4,3.7,20.9,0l110.1-63.6
		c6.5-3.7,10.4-10.6,10.4-18.1V186.4c0-7.5-4-14.4-10.4-18.1l-110.1-63.6c-6.5-3.7-14.4-3.7-20.9,0l-110.1,63.6
		C123,172.1,119,179,119,186.4z M223.2,243.4l2,2l-37.5,37.5l-2-2L223.2,243.4z M185.8,272.8l29.1-29.1l2,2l-29.1,29.1L185.8,272.8z
		 M146.1,197.1h24.3v18.4l-24.3,24.3V197.1z M170.4,301h-24.3v-18.4l24.3-24.3V301z M147.2,278.3l-2-2l24.3-24.3l2,2L147.2,278.3z
		 M147.2,270.3l-2-2l24.3-24.3l2,2L147.2,270.3z M147.2,262.2l-2-2l24.3-24.3l2,2L147.2,262.2z M147.2,254.1l-2-2l24.3-24.3l2,2
		L147.2,254.1z M147.2,246.1l-2-2l24.3-24.3l2,2L147.2,246.1z M210.9,300.1h-12.2l12.2-12.2V300.1z M193.8,301.1l-2-2l18.3-18.3l2,2
		L193.8,301.1z M187.8,299l-2-2l24.3-24.3l2,2L187.8,299z M187.8,290.9l-2-2l24.3-24.3l2,2L187.8,290.9z M224.2,266.6l37.1-37.1l2,2
		l-37.1,37.1L224.2,266.6z M260.4,238.4c-0.9,2.3-2,4.4-3.4,6.4c-1.8,2.5-4,4.8-6.6,6.8c-2.3,1.7-4.8,3.2-7.7,4.4L260.4,238.4z
		 M286.4,299.5L305,281l2,2l-18.5,18.5L286.4,299.5z M359.4,281.5c-1.7,3.8-4.2,7.1-7.5,10c-3.3,2.8-7.4,5-12.2,6.6
		c-4.9,1.6-10.4,2.4-16.6,2.4h-31.9l18.2-18.2h13.2c3.2,0,5.8-0.4,7.8-1.2c2-0.8,3.6-1.9,4.7-3.1c1.1-1.3,1.9-2.7,2.4-4.4
		c0.4-1.6,0.6-3.3,0.6-4.9c0-1.9-0.3-3.6-0.7-5.1c-0.5-1.5-1.4-2.8-2.6-3.9c-0.5-0.4-1.1-0.8-1.7-1.2l11.2-11.2
		c5.6,1.7,9.9,4.2,12.8,7.4c3.3,3.7,4.9,8.5,4.9,14.4C362,273.6,361.1,277.7,359.4,281.5z M306.4,255.3l16.6-16.6l2,2l-16.6,16.6
		L306.4,255.3z M331.4,258.5l-2-2l28.8-28.8l2,2L331.4,258.5z M357.4,234.3c-0.6,1.1-1.2,2.2-2,3.2c-1.4,1.9-3.3,3.6-5.5,5.2
		c-0.7,0.5-1.5,1-2.4,1.5L357.4,234.3z M324.5,257.4l-2-2l36-36l2,2L324.5,257.4z M358.8,215l-42.4,42.4l-2-2l42.4-42.4L358.8,215z
		 M356.1,209.7l-19.7,19.7l-2-2l19.7-19.7L356.1,209.7z M352.3,205.4l-16.9,16.9l-2-2l16.9-16.9L352.3,205.4z M281.5,196.6h38.2
		c7.2,0,13.3,0.7,18.3,2c3.4,0.9,6.3,2,8.8,3.4l-15.4,15.4c-1.3-1-2.9-1.7-4.8-2.1c-2-0.4-4.3-0.6-7-0.6h-14.1v25.7h3l-27.1,27.1
		V196.6z M314.7,238.9l2,2l-34.2,34.2l-2-2L314.7,238.9z M304.9,256.9l2,2l-24.3,24.3l-2-2L304.9,256.9z M304.9,264.9l2,2
		l-24.3,24.3l-2-2L304.9,264.9z M304.9,273l2,2l-24.3,24.3l-2-2L304.9,273z M250,300.1c-4,0-6.9-1.5-8.7-4.6l-13.8-24.2l14.5-14.5
		c1.4,0.8,2.8,1.7,4.1,2.7c1.4,1.2,2.6,2.6,3.7,4.4l22.1,36.2H250z M223,263.8l-2-2l40.4-40.4l2,2L223,263.8z M261.8,216.9
		l-45.7,45.7l-2-2l45.7-45.7L261.8,216.9z M259,211.6L239.6,231l-2-2l19.4-19.4L259,211.6z M255.5,207.1l-16.6,16.6l-2-2l16.6-16.6
		L255.5,207.1z M236.1,219.9c-0.5-0.7-1.1-1.3-1.7-1.8c-3-2.6-7.6-3.9-13.8-3.9h-9.7V245h0.1l-24.2,24.2v-73.1h33.8
		c7.5,0,13.9,0.8,19.2,2.3c4.8,1.4,8.8,3.3,12,5.7L236.1,219.9z"/>
</g>
<linearGradient id="SVGID_3_" gradientUnits="userSpaceOnUse" x1="37.8549" y1="250" x2="462.1451" y2="250">
	<stop  offset="0" style="stop-color:#47FFD1"/>
	<stop  offset="1" style="stop-color:#56C4FF"/>
</linearGradient>
<path class="st2" d="M40.9,150.1v199.8c0,12.9,6.9,24.8,18,31.3L232,481.1c11.2,6.4,24.9,6.4,36.1,0l173.1-99.9
	c11.2-6.4,18-18.4,18-31.3V150.1c0-12.9-6.9-24.8-18-31.3L268,18.9c-11.2-6.4-24.9-6.4-36.1,0L58.9,118.8
	C47.7,125.3,40.9,137.2,40.9,150.1z"/>
<g class="st3">
	<g id="XMLID_3124_" class="st4">
		<g id="XMLID_537_">
			<polygon id="XMLID_538_" class="st5" points="170.4,197.1 146.1,197.1 146.1,239.8 170.4,215.5 			"/>
		</g>
		<g id="XMLID_482_">
			<g id="XMLID_535_">
				
					<rect id="XMLID_536_" x="141.1" y="263.8" transform="matrix(0.7071 -0.7071 0.7071 0.7071 -141.1679 189.6068)" class="st6" width="34.3" height="2.9"/>
			</g>
			<g id="XMLID_533_">
				
					<rect id="XMLID_534_" x="141.1" y="255.7" transform="matrix(0.7071 -0.7071 0.7071 0.7071 -135.4572 187.2291)" class="st6" width="34.3" height="2.9"/>
			</g>
			<g id="XMLID_531_">
				
					<rect id="XMLID_532_" x="141.1" y="247.6" transform="matrix(0.7071 -0.7071 0.7071 0.7071 -129.751 184.8655)" class="st6" width="34.3" height="2.9"/>
			</g>
			<g id="XMLID_529_">
				
					<rect id="XMLID_530_" x="141.1" y="239.6" transform="matrix(0.7071 -0.7071 0.7071 0.7071 -124.0437 182.5015)" class="st6" width="34.3" height="2.9"/>
			</g>
			<g id="XMLID_504_">
				
					<rect id="XMLID_527_" x="141.1" y="231.5" transform="matrix(0.7071 -0.7071 0.7071 0.7071 -118.3374 180.1378)" class="st6" width="34.3" height="2.9"/>
			</g>
		</g>
		<g id="XMLID_168_">
			<polygon id="XMLID_181_" class="st5" points="146.1,282.6 146.1,301 170.4,301 170.4,258.3 			"/>
		</g>
	</g>
	<g id="XMLID_3142_" class="st4">
		<g id="XMLID_887_">
			<path id="XMLID_888_" class="st5" d="M210.9,245v-30.8h9.7c6.2,0,10.8,1.3,13.8,3.9c0.7,0.6,1.2,1.2,1.7,1.8l15.7-15.7
				c-3.2-2.4-7.2-4.3-12-5.7c-5.3-1.5-11.7-2.3-19.2-2.3h-33.8v73.1L211,245H210.9z"/>
		</g>
		<g id="XMLID_885_">
			<polygon id="XMLID_886_" class="st5" points="210.9,300.1 210.9,287.9 198.7,300.1 			"/>
		</g>
		<g id="XMLID_883_">
			<path id="XMLID_884_" class="st6" d="M250.4,251.6c2.6-2,4.8-4.3,6.6-6.8c1.4-2,2.5-4.1,3.4-6.4L242.8,256
				C245.6,254.8,248.2,253.4,250.4,251.6z"/>
		</g>
		<g id="XMLID_881_">
			<path id="XMLID_882_" class="st5" d="M246,259.5c-1.3-1.1-2.6-2-4.1-2.7l-14.5,14.5l13.8,24.2c1.8,3,4.7,4.6,8.7,4.6h21.8
				l-22.1-36.2C248.6,262.2,247.4,260.7,246,259.5z"/>
		</g>
		<g id="XMLID_2_">
			<g id="XMLID_879_">
				
					<rect id="XMLID_880_" x="217.5" y="247.7" transform="matrix(0.7071 -0.7071 0.7071 0.7071 -104.7435 245.3012)" class="st6" width="52.5" height="2.9"/>
			</g>
			<g id="XMLID_877_">
				
					<rect id="XMLID_878_" x="189" y="289.5" transform="matrix(0.7071 -0.7071 0.7071 0.7071 -146.5663 227.9605)" class="st6" width="25.9" height="2.9"/>
			</g>
			<g id="XMLID_875_">
				
					<rect id="XMLID_876_" x="213.6" y="241.2" transform="matrix(0.7071 -0.7071 0.7071 0.7071 -100.6259 242.2944)" class="st6" width="57.1" height="2.9"/>
			</g>
			<g id="XMLID_873_">
				
					<rect id="XMLID_874_" x="181.7" y="284.4" transform="matrix(0.7071 -0.7071 0.7071 0.7071 -143.8308 224.3828)" class="st6" width="34.4" height="2.9"/>
			</g>
			<g id="XMLID_871_">
				
					<rect id="XMLID_872_" x="205.7" y="237.3" transform="matrix(0.7071 -0.7071 0.7071 0.7071 -99.0926 238.1736)" class="st6" width="64.6" height="2.9"/>
			</g>
			<g id="XMLID_869_">
				
					<rect id="XMLID_870_" x="181.7" y="276.3" transform="matrix(0.7071 -0.7071 0.7071 0.7071 -138.1246 222.0192)" class="st6" width="34.4" height="2.9"/>
			</g>
			<g id="XMLID_867_">
				
					<rect id="XMLID_868_" x="234.6" y="218.9" transform="matrix(0.7071 -0.7071 0.7071 0.7071 -83.0456 240.1054)" class="st6" width="27.5" height="2.9"/>
			</g>
			<g id="XMLID_865_">
				
					<rect id="XMLID_866_" x="179" y="261.7" transform="matrix(0.7071 -0.7071 0.7071 0.7071 -125.8615 222.3868)" class="st6" width="53" height="2.9"/>
			</g>
			<g id="XMLID_839_">
				
					<rect id="XMLID_864_" x="234.4" y="212.9" transform="matrix(0.7071 -0.7071 0.7071 0.7071 -79.4818 236.854)" class="st6" width="23.5" height="2.9"/>
			</g>
			<g id="XMLID_293_">
				
					<rect id="XMLID_295_" x="180.7" y="257.8" transform="matrix(0.7071 -0.7071 0.7071 0.7071 -124.3142 218.2837)" class="st6" width="41.2" height="2.9"/>
			</g>
		</g>
	</g>
	<g id="XMLID_988_" class="st4">
		<g id="XMLID_690_">
			<path id="XMLID_724_" class="st5" d="M349.9,242.7c2.2-1.5,4.1-3.3,5.5-5.2c0.8-1,1.4-2.1,2-3.2l-9.9,9.9
				C348.4,243.7,349.2,243.2,349.9,242.7z"/>
		</g>
		<g id="XMLID_673_">
			<path id="XMLID_674_" class="st5" d="M344.3,247.4l-11.2,11.2c0.6,0.3,1.2,0.7,1.7,1.2c1.2,1,2.1,2.3,2.6,3.9
				c0.5,1.5,0.7,3.2,0.7,5.1c0,1.7-0.2,3.3-0.6,4.9c-0.4,1.6-1.2,3.1-2.4,4.4c-1.1,1.3-2.7,2.3-4.7,3.1c-2,0.8-4.6,1.2-7.8,1.2
				h-13.2l-18.2,18.2h31.9c6.2,0,11.8-0.8,16.6-2.4c4.9-1.6,8.9-3.8,12.2-6.6c3.3-2.8,5.8-6.1,7.5-10c1.7-3.8,2.6-7.9,2.6-12.3
				c0-5.8-1.6-10.6-4.9-14.4C354.2,251.6,349.9,249.1,344.3,247.4z"/>
		</g>
		<g id="XMLID_671_">
			<path id="XMLID_672_" class="st5" d="M305.6,240.3v-25.7h14.1c2.7,0,5.1,0.2,7,0.6c1.9,0.4,3.5,1.1,4.8,2.1l15.4-15.4
				c-2.5-1.4-5.5-2.5-8.8-3.4c-5-1.3-11.2-2-18.3-2h-38.2v70.8l27.1-27.1H305.6z"/>
		</g>
		<g id="XMLID_220_">
			<g id="XMLID_669_">
				
					<rect id="XMLID_670_" x="324.5" y="241.7" transform="matrix(0.7071 -0.7071 0.7071 0.7071 -70.9311 315.0293)" class="st6" width="40.7" height="2.9"/>
			</g>
			<g id="XMLID_667_">
				
					<rect id="XMLID_668_" x="283.6" y="289.8" transform="matrix(0.7071 -0.7071 0.7071 0.7071 -119.0461 295.0991)" class="st6" width="26.2" height="2.9"/>
			</g>
			<g id="XMLID_665_">
				
					<rect id="XMLID_666_" x="316.1" y="236.9" transform="matrix(0.7071 -0.7071 0.7071 0.7071 -68.4918 311.3292)" class="st6" width="50.9" height="2.9"/>
			</g>
			<g id="XMLID_663_">
				
					<rect id="XMLID_664_" x="276.5" y="284.7" transform="matrix(0.7071 -0.7071 0.7071 0.7071 -116.3313 291.4965)" class="st6" width="34.4" height="2.9"/>
			</g>
			<g id="XMLID_526_">
				
					<rect id="XMLID_662_" x="306.7" y="233.7" transform="matrix(0.7071 -0.7071 0.7071 0.7071 -67.6842 306.9191)" class="st6" width="59.9" height="2.9"/>
			</g>
			<g id="XMLID_524_">
				
					<rect id="XMLID_525_" x="276.5" y="276.7" transform="matrix(0.7071 -0.7071 0.7071 0.7071 -110.624 289.1324)" class="st6" width="34.4" height="2.9"/>
			</g>
			<g id="XMLID_522_">
				
					<rect id="XMLID_523_" x="331.3" y="217.1" transform="matrix(0.7071 -0.7071 0.7071 0.7071 -53.4018 308.1072)" class="st6" width="27.8" height="2.9"/>
			</g>
			<g id="XMLID_520_">
				
					<rect id="XMLID_521_" x="303.9" y="246.6" transform="matrix(0.7071 -0.7071 0.7071 0.7071 -82.9112 295.8834)" class="st6" width="23.5" height="2.9"/>
			</g>
			<g id="XMLID_518_">
				
					<rect id="XMLID_519_" x="276.5" y="268.6" transform="matrix(0.7071 -0.7071 0.7071 0.7071 -104.9164 286.7868)" class="st6" width="34.4" height="2.9"/>
			</g>
			<g id="XMLID_516_">
				
					<rect id="XMLID_517_" x="330.9" y="211.4" transform="matrix(0.7071 -0.7071 0.7071 0.7071 -50.0944 304.7331)" class="st6" width="23.9" height="2.9"/>
			</g>
			<g id="XMLID_238_">
				
					<rect id="XMLID_515_" x="274.5" y="255.6" transform="matrix(0.7071 -0.7071 0.7071 0.7071 -94.2922 286.442)" class="st6" width="48.3" height="2.9"/>
			</g>
		</g>
	</g>
</g>
<path class="st7" d="M396.1,150.3l-136.9-79c-3.6-2.1-7.8-3.2-11.9-3.2v364c4.2,0,8.3-1.1,11.9-3.2l136.9-79
	c7.4-4.3,11.9-12.2,11.9-20.7V171C408.1,162.4,403.5,154.5,396.1,150.3z"/>
</svg>
